<svg version="1.1" xmlns="http://www.w3.org/2000/svg" xmlns:xlink="http://www.w3.org/1999/xlink" x="0px" y="0px" viewBox="0 0 48 48" style="enable-background:new 0 0 48 48;" xml:space="preserve" width="48px" height="48px"><title xmlns=""></title>
<style type="text/css">
	.DevExpress-Logo-st10{fill:#404041;}
	.DevExpress-Logo-st11{fill:#F48120;}
</style>
<g>
	<path class="DevExpress-Logo-st10" d="M10.2,33.6c-0.8,1-1.4,1.9-1.9,2.8C8.2,36.5,8,37.2,8,37.6v0.6c0,1,0.8,1.8,1.8,1.8h28.3c1,0,1.8-0.8,1.8-1.8
		V16.4C24.5,19.1,15.1,27.5,10.2,33.6z"></path>
	<path class="DevExpress-Logo-st11" d="M38.2,8H9.8C8.8,8,8,8.8,8,9.8v17c5.6-5.9,15.6-12.3,30.8-14.1c0.4,0,1.2-0.2,1.2-1.4V9.8
		C40,8.8,39.2,8,38.2,8z"></path>
</g>
</svg>